<svg width="247" height="216" viewBox="0 0 247 216" fill="none" xmlns="http://www.w3.org/2000/svg">
<circle cx="137.222" cy="18.1818" r="17.4646" fill="#5A1917"/>
<path d="M116.015 39.3889C51.3064 105.699 68.5298 152.909 68.5298 152.909H98.188C98.188 152.909 68.1101 120.475 116.015 39.3889Z" fill="#5A1917"/>
<path fill-rule="evenodd" clip-rule="evenodd" d="M113.52 152.909H137.222C136.174 151.862 135.169 150.839 134.202 149.837L112.503 151.308C112.832 151.851 113.171 152.385 113.52 152.909ZM112.025 150.5C98.8141 127.628 102.51 88.9407 108.53 79.3081C110.769 114.009 113.008 126.612 130.568 145.959L112.025 150.5Z" fill="#5A1917"/>
<path fill-rule="evenodd" clip-rule="evenodd" d="M149.697 152.909H188.369C188.369 152.909 181.42 151.646 171.588 147.302L146.08 149.031C148.284 151.591 149.697 152.909 149.697 152.909ZM141.52 143.277L157.048 139.474C145.6 132.111 133.114 120.955 123.5 104.258C127.724 121.86 135.525 135.09 141.52 143.277Z" fill="#5A1917"/>
<path d="M71.5859 181.124C72.0313 181.111 72.4392 181.009 72.8094 180.818C73.1796 180.628 73.4978 180.373 73.7639 180.055C74.0299 179.731 74.2353 179.356 74.3799 178.93C74.5303 178.497 74.6055 178.033 74.6055 177.537C74.6055 177.054 74.5303 176.599 74.3799 176.173C74.2353 175.741 74.0299 175.362 73.7639 175.038C73.4978 174.714 73.1796 174.456 72.8094 174.265C72.4392 174.075 72.0313 173.973 71.5859 173.96V181.124ZM69.3733 173.96C68.9221 173.973 68.5113 174.075 68.1411 174.265C67.7767 174.456 67.4614 174.714 67.1953 175.038C66.9292 175.362 66.7239 175.741 66.5793 176.173C66.4346 176.599 66.3623 177.054 66.3623 177.537C66.3623 178.033 66.4346 178.497 66.5793 178.93C66.7239 179.356 66.9292 179.731 67.1953 180.055C67.4614 180.373 67.7767 180.628 68.1411 180.818C68.5113 181.009 68.9221 181.111 69.3733 181.124V173.96ZM71.5859 171.986C72.3668 172.011 73.0841 172.173 73.7378 172.472C74.3915 172.771 74.9526 173.172 75.4212 173.674C75.8955 174.176 76.2657 174.758 76.5318 175.42C76.7979 176.081 76.931 176.787 76.931 177.537C76.931 178.294 76.7979 179.006 76.5318 179.674C76.2657 180.335 75.8955 180.917 75.4212 181.419C74.9526 181.922 74.3915 182.322 73.7378 182.621C73.0841 182.92 72.3668 183.082 71.5859 183.108V184.748H69.3733V183.108C68.5981 183.082 67.8837 182.92 67.23 182.621C66.5764 182.316 66.0124 181.915 65.538 181.419C65.0637 180.917 64.6934 180.335 64.4273 179.674C64.1612 179.006 64.0282 178.294 64.0282 177.537C64.0282 176.787 64.1612 176.081 64.4273 175.42C64.6934 174.758 65.0637 174.18 65.538 173.684C66.0124 173.181 66.5764 172.781 67.23 172.482C67.8837 172.183 68.5981 172.018 69.3733 171.986V170.374H71.5859V171.986Z" fill="#5A1917"/>
<path d="M87.4019 179.54L85.8747 174.952C85.7995 174.749 85.7214 174.507 85.6404 174.227C85.5595 173.948 85.4785 173.645 85.3975 173.321C85.3223 173.645 85.2442 173.951 85.1632 174.237C85.0822 174.517 85.0041 174.761 84.9289 174.971L83.4104 179.54H87.4019ZM91.5235 184.748H89.7187C89.5162 184.748 89.3513 184.694 89.2241 184.586C89.0968 184.472 89.0014 184.332 88.9377 184.167L88.0006 181.353H82.803L81.8659 184.167C81.8196 184.313 81.73 184.446 81.5969 184.567C81.4639 184.688 81.2961 184.748 81.0937 184.748H79.2802L84.2087 170.956H86.5949L91.5235 184.748Z" fill="#5A1917"/>
<path d="M105.874 184.748H103.757C103.537 184.748 103.352 184.685 103.201 184.558C103.057 184.43 102.921 184.243 102.793 183.995L100.121 179.359C100.051 179.226 99.9762 179.117 99.8952 179.035C99.82 178.946 99.7361 178.876 99.6436 178.825C99.5568 178.768 99.4556 178.73 99.3399 178.71C99.23 178.691 99.1027 178.682 98.9581 178.682H97.5611V184.748H95.227V170.956H97.5611V176.736H98.7412C98.9783 176.736 99.1837 176.691 99.3572 176.602C99.5308 176.513 99.6928 176.348 99.8432 176.106L102.594 171.642C102.709 171.439 102.845 171.274 103.002 171.146C103.158 171.019 103.346 170.956 103.566 170.956H105.561L102.151 176.488C102.007 176.73 101.839 176.93 101.648 177.089C101.457 177.248 101.246 177.372 101.015 177.461C101.362 177.569 101.654 177.741 101.891 177.976C102.134 178.205 102.365 178.523 102.585 178.93L105.874 184.748Z" fill="#5A1917"/>
<path d="M119.693 170.956L114.625 182.831C114.446 183.244 114.255 183.585 114.053 183.852C113.85 184.119 113.63 184.329 113.393 184.481C113.162 184.634 112.91 184.739 112.638 184.796C112.372 184.86 112.086 184.891 111.779 184.891C111.363 184.891 111.059 184.85 110.868 184.767C110.677 184.685 110.582 184.564 110.582 184.405V182.803H111.258C111.386 182.803 111.516 182.79 111.649 182.764C111.782 182.739 111.912 182.688 112.039 182.612C112.172 182.535 112.3 182.427 112.421 182.287C112.543 182.148 112.656 181.963 112.76 181.734L113.254 180.628L108.222 170.956H110.408C110.611 170.956 110.773 171.01 110.894 171.118C111.016 171.226 111.117 171.363 111.198 171.528L113.636 176.583C113.769 176.863 113.888 177.14 113.992 177.413C114.102 177.687 114.197 177.966 114.278 178.253C114.429 177.68 114.622 177.124 114.859 176.583L116.985 171.528C117.049 171.388 117.144 171.258 117.272 171.137C117.399 171.016 117.561 170.956 117.758 170.956H119.693Z" fill="#5A1917"/>
<path d="M132.337 184.748H129.985V172.93H126.558C126.477 174.66 126.361 176.157 126.211 177.423C126.066 178.682 125.89 179.757 125.682 180.647C125.479 181.531 125.245 182.249 124.979 182.803C124.718 183.356 124.432 183.788 124.12 184.1C123.807 184.405 123.472 184.615 123.113 184.729C122.754 184.837 122.378 184.891 121.985 184.891C121.569 184.891 121.265 184.85 121.074 184.767C120.883 184.685 120.788 184.564 120.788 184.405V182.803H121.456C121.606 182.803 121.757 182.783 121.907 182.745C122.063 182.707 122.216 182.628 122.367 182.507C122.523 182.38 122.673 182.198 122.818 181.963C122.969 181.728 123.11 181.413 123.243 181.019C123.382 180.618 123.509 180.129 123.625 179.55C123.747 178.971 123.854 178.275 123.946 177.461C124.044 176.647 124.128 175.706 124.198 174.637C124.273 173.563 124.328 172.335 124.363 170.956H132.337V184.748Z" fill="#5A1917"/>
<path d="M141.936 182.745C142.37 182.745 142.731 182.694 143.021 182.593C143.316 182.485 143.553 182.338 143.732 182.154C143.912 181.969 144.039 181.753 144.114 181.505C144.189 181.257 144.227 180.99 144.227 180.704C144.227 180.392 144.189 180.109 144.114 179.855C144.039 179.601 143.912 179.388 143.732 179.216C143.553 179.038 143.319 178.901 143.029 178.806C142.74 178.71 142.379 178.663 141.945 178.663H139.897V182.745H141.936ZM141.945 176.66C142.76 176.66 143.457 176.758 144.036 176.955C144.62 177.152 145.095 177.423 145.459 177.766C145.829 178.103 146.101 178.504 146.275 178.968C146.448 179.426 146.535 179.919 146.535 180.446C146.535 181.095 146.431 181.683 146.223 182.211C146.02 182.739 145.722 183.194 145.329 183.575C144.935 183.95 144.452 184.24 143.88 184.443C143.313 184.647 142.665 184.748 141.936 184.748H137.563V170.956H139.897V176.66H141.945Z" fill="#5A1917"/>
<path d="M158.01 173.064H154.226V184.748H151.892V173.064H148.109V170.956H158.01V173.064Z" fill="#5A1917"/>
<path d="M164.424 172.997V176.822H168.814V178.796H164.424V182.698H169.994V184.748H162.081V170.956H169.994V172.997H164.424Z" fill="#5A1917"/>
<path d="M183.256 173.064H179.473V184.748H177.139V173.064H173.356V170.956H183.256V173.064Z" fill="#5A1917"/>
<path d="M10.5773 198.209V212.002H8.23453V203.36C8.23453 203.035 8.24031 202.695 8.25188 202.339C8.26923 201.983 8.30394 201.604 8.35601 201.204C8.24031 201.56 8.11305 201.891 7.97421 202.196C7.84117 202.495 7.71101 202.759 7.58375 202.988L2.78533 211.21C2.73327 211.305 2.66964 211.401 2.59444 211.496C2.52502 211.591 2.44693 211.677 2.36016 211.754C2.27339 211.823 2.17794 211.884 2.07382 211.935C1.96969 211.979 1.86267 212.002 1.75277 212.002H0V198.209H2.34281V206.851C2.34281 207.175 2.33413 207.518 2.31677 207.881C2.3052 208.237 2.27339 208.615 2.22133 209.016C2.33702 208.66 2.46139 208.329 2.59444 208.024C2.73327 207.719 2.86921 207.452 3.00226 207.223L7.792 199C7.84406 198.905 7.9048 198.81 7.97421 198.714C8.04942 198.619 8.1304 198.536 8.21717 198.466C8.30394 198.39 8.3965 198.33 8.49484 198.285C8.59896 198.234 8.70887 198.209 8.82457 198.209H10.5773Z" fill="#5A1917"/>
<path d="M26.3784 198.209V212.002H24.0356V205.973H18.1439V212.002H15.8011V198.209H18.1439V204.142H24.0356V198.209H26.3784Z" fill="#5A1917"/>
<path d="M38.2921 208.377C38.7375 208.364 39.1454 208.262 39.5156 208.072C39.8858 207.881 40.204 207.626 40.4701 207.309C40.7362 206.984 40.9415 206.609 41.0861 206.183C41.2365 205.751 41.3117 205.286 41.3117 204.79C41.3117 204.307 41.2365 203.852 41.0861 203.426C40.9415 202.994 40.7362 202.616 40.4701 202.291C40.204 201.967 39.8858 201.709 39.5156 201.519C39.1454 201.328 38.7375 201.226 38.2921 201.213V208.377ZM36.0795 201.213C35.6283 201.226 35.2175 201.328 34.8473 201.519C34.4829 201.709 34.1676 201.967 33.9015 202.291C33.6354 202.616 33.4301 202.994 33.2855 203.426C33.1408 203.852 33.0685 204.307 33.0685 204.79C33.0685 205.286 33.1408 205.751 33.2855 206.183C33.4301 206.609 33.6354 206.984 33.9015 207.309C34.1676 207.626 34.4829 207.881 34.8473 208.072C35.2175 208.262 35.6283 208.364 36.0795 208.377V201.213ZM38.2921 199.239C39.0731 199.264 39.7904 199.426 40.444 199.725C41.0977 200.024 41.6588 200.425 42.1274 200.927C42.6017 201.43 42.9719 202.011 43.238 202.673C43.5041 203.334 43.6372 204.04 43.6372 204.79C43.6372 205.547 43.5041 206.259 43.238 206.927C42.9719 207.588 42.6017 208.17 42.1274 208.673C41.6588 209.175 41.0977 209.576 40.444 209.874C39.7904 210.173 39.0731 210.335 38.2921 210.361V212.002H36.0795V210.361C35.3043 210.335 34.5899 210.173 33.9362 209.874C33.2826 209.569 32.7186 209.169 32.2442 208.673C31.7699 208.17 31.3996 207.588 31.1335 206.927C30.8675 206.259 30.7344 205.547 30.7344 204.79C30.7344 204.04 30.8675 203.334 31.1335 202.673C31.3996 202.011 31.7699 201.433 32.2442 200.937C32.7186 200.434 33.2826 200.034 33.9362 199.735C34.5899 199.436 35.3043 199.271 36.0795 199.239V197.627H38.2921V199.239Z" fill="#5A1917"/>
<path d="M59.962 205.105C59.962 206.116 59.8087 207.054 59.5021 207.919C59.2013 208.777 58.7732 209.521 58.2179 210.151C57.6626 210.781 56.9944 211.273 56.2135 211.63C55.4326 211.979 54.5649 212.154 53.6104 212.154C52.6617 212.154 51.7969 211.979 51.0159 211.63C50.235 211.273 49.564 210.781 49.0029 210.151C48.4475 209.521 48.0166 208.777 47.71 207.919C47.4034 207.054 47.2501 206.116 47.2501 205.105C47.2501 204.094 47.4034 203.159 47.71 202.301C48.0166 201.436 48.4475 200.689 49.0029 200.059C49.564 199.43 50.235 198.94 51.0159 198.59C51.7969 198.234 52.6617 198.056 53.6104 198.056C54.2467 198.056 54.8454 198.139 55.4065 198.304C55.9676 198.463 56.4825 198.692 56.951 198.991C57.4196 199.283 57.839 199.643 58.2092 200.069C58.5852 200.488 58.9034 200.959 59.1637 201.48C59.424 202.002 59.6207 202.568 59.7537 203.178C59.8926 203.789 59.962 204.431 59.962 205.105ZM57.5758 205.105C57.5758 204.348 57.4832 203.671 57.2981 203.073C57.113 202.469 56.8498 201.957 56.5085 201.538C56.1672 201.118 55.7507 200.797 55.259 200.574C54.7731 200.352 54.2236 200.24 53.6104 200.24C52.9972 200.24 52.4448 200.352 51.9531 200.574C51.4671 200.797 51.0506 201.118 50.7036 201.538C50.3623 201.957 50.0991 202.469 49.914 203.073C49.7288 203.671 49.6363 204.348 49.6363 205.105C49.6363 205.862 49.7288 206.542 49.914 207.146C50.0991 207.744 50.3623 208.253 50.7036 208.673C51.0506 209.086 51.4671 209.404 51.9531 209.626C52.4448 209.849 52.9972 209.96 53.6104 209.96C54.2236 209.96 54.7731 209.849 55.259 209.626C55.7507 209.404 56.1672 209.086 56.5085 208.673C56.8498 208.253 57.113 207.744 57.2981 207.146C57.4832 206.542 57.5758 205.862 57.5758 205.105Z" fill="#5A1917"/>
<path d="M75.0881 212.002H72.9709C72.7511 212.002 72.566 211.938 72.4156 211.811C72.271 211.684 72.135 211.496 72.0078 211.248L69.3352 206.612C69.2658 206.479 69.1906 206.371 69.1096 206.288C69.0344 206.199 68.9506 206.129 68.858 206.078C68.7712 206.021 68.67 205.983 68.5543 205.964C68.4444 205.945 68.3171 205.935 68.1725 205.935H66.7755V212.002H64.4414V198.209H66.7755V203.989H67.9556C68.1928 203.989 68.3981 203.945 68.5717 203.856C68.7452 203.767 68.9072 203.601 69.0576 203.36L71.8082 198.895C71.9239 198.692 72.0598 198.527 72.216 198.399C72.3722 198.272 72.5602 198.209 72.78 198.209H74.7758L71.3657 203.741C71.221 203.983 71.0533 204.183 70.8624 204.342C70.6715 204.501 70.4604 204.625 70.229 204.714C70.5761 204.822 70.8682 204.994 71.1054 205.229C71.3483 205.458 71.5797 205.776 71.7995 206.183L75.0881 212.002Z" fill="#5A1917"/>
<path d="M88.907 198.209L83.8396 210.084C83.6603 210.498 83.4694 210.838 83.2669 211.105C83.0645 211.372 82.8446 211.582 82.6075 211.734C82.3761 211.887 82.1244 211.992 81.8526 212.049C81.5865 212.113 81.3001 212.145 80.9935 212.145C80.577 212.145 80.2733 212.103 80.0824 212.021C79.8916 211.938 79.7961 211.817 79.7961 211.658V210.056H80.4729C80.6002 210.056 80.7303 210.043 80.8634 210.018C80.9964 209.992 81.1266 209.941 81.2538 209.865C81.3869 209.789 81.5142 209.68 81.6356 209.541C81.7571 209.401 81.8699 209.216 81.974 208.987L82.4686 207.881L77.4359 198.209H79.6226C79.825 198.209 79.987 198.263 80.1085 198.371C80.23 198.479 80.3312 198.616 80.4122 198.781L82.8504 203.836C82.9835 204.116 83.1021 204.393 83.2062 204.666C83.3161 204.94 83.4115 205.22 83.4925 205.506C83.6429 204.933 83.8367 204.377 84.0739 203.836L86.1998 198.781C86.2634 198.641 86.3589 198.511 86.4861 198.39C86.6134 198.269 86.7753 198.209 86.972 198.209H88.907Z" fill="#5A1917"/>
<path d="M106.175 198.209V212.002H104.118V203.092C104.118 202.736 104.136 202.352 104.171 201.938L100.379 209.769C100.199 210.145 99.9245 210.332 99.5543 210.332H99.2246C98.8544 210.332 98.5796 210.145 98.4003 209.769L94.565 201.91C94.5824 202.12 94.5968 202.326 94.6084 202.53C94.62 202.733 94.6257 202.921 94.6257 203.092V212.002H92.5693V198.209H94.3307C94.4348 198.209 94.5245 198.212 94.5997 198.218C94.6749 198.225 94.7414 198.241 94.7993 198.266C94.8629 198.291 94.9179 198.333 94.9641 198.39C95.0162 198.447 95.0654 198.523 95.1117 198.619L98.8688 206.278C98.9672 206.482 99.0568 206.692 99.1378 206.908C99.2246 207.124 99.3085 207.347 99.3894 207.576C99.4704 207.34 99.5543 207.115 99.6411 206.898C99.7279 206.676 99.8204 206.463 99.9187 206.259L103.624 198.619C103.67 198.523 103.719 198.447 103.771 198.39C103.823 198.333 103.878 198.291 103.936 198.266C104 198.241 104.069 198.225 104.144 198.218C104.22 198.212 104.309 198.209 104.413 198.209H106.175Z" fill="#5A1917"/>
<path d="M125.01 198.209V212.002H122.953V203.092C122.953 202.736 122.97 202.352 123.005 201.938L119.213 209.769C119.034 210.145 118.759 210.332 118.389 210.332H118.059C117.689 210.332 117.414 210.145 117.235 209.769L113.4 201.91C113.417 202.12 113.431 202.326 113.443 202.53C113.455 202.733 113.46 202.921 113.46 203.092V212.002H111.404V198.209H113.165C113.269 198.209 113.359 198.212 113.434 198.218C113.51 198.225 113.576 198.241 113.634 198.266C113.698 198.291 113.752 198.333 113.799 198.39C113.851 198.447 113.9 198.523 113.946 198.619L117.703 206.278C117.802 206.482 117.891 206.692 117.972 206.908C118.059 207.124 118.143 207.347 118.224 207.576C118.305 207.34 118.389 207.115 118.476 206.898C118.562 206.676 118.655 206.463 118.753 206.259L122.458 198.619C122.505 198.523 122.554 198.447 122.606 198.39C122.658 198.333 122.713 198.291 122.771 198.266C122.834 198.241 122.904 198.225 122.979 198.218C123.054 198.212 123.144 198.209 123.248 198.209H125.01Z" fill="#5A1917"/>
<path d="M140.191 198.209L135.124 210.084C134.944 210.498 134.754 210.838 134.551 211.105C134.349 211.372 134.129 211.582 133.892 211.734C133.66 211.887 133.409 211.992 133.137 212.049C132.871 212.113 132.584 212.145 132.278 212.145C131.861 212.145 131.557 212.103 131.367 212.021C131.176 211.938 131.08 211.817 131.08 211.658V210.056H131.757C131.884 210.056 132.014 210.043 132.147 210.018C132.281 209.992 132.411 209.941 132.538 209.865C132.671 209.789 132.798 209.68 132.92 209.541C133.041 209.401 133.154 209.216 133.258 208.987L133.753 207.881L128.72 198.209H130.907C131.109 198.209 131.271 198.263 131.393 198.371C131.514 198.479 131.615 198.616 131.696 198.781L134.135 203.836C134.268 204.116 134.386 204.393 134.49 204.666C134.6 204.94 134.696 205.22 134.777 205.506C134.927 204.933 135.121 204.377 135.358 203.836L137.484 198.781C137.548 198.641 137.643 198.511 137.77 198.39C137.897 198.269 138.059 198.209 138.256 198.209H140.191Z" fill="#5A1917"/>
<path d="M154.431 198.209V212.002H152.088V205.973H146.196V212.002H143.853V198.209H146.196V204.142H152.088V198.209H154.431Z" fill="#5A1917"/>
<path d="M170.232 198.209V212.002H167.889V203.36C167.889 203.035 167.895 202.695 167.906 202.339C167.924 201.983 167.958 201.604 168.01 201.204C167.895 201.56 167.767 201.891 167.629 202.196C167.496 202.495 167.365 202.759 167.238 202.988L162.44 211.21C162.388 211.305 162.324 211.401 162.249 211.496C162.179 211.591 162.101 211.677 162.015 211.754C161.928 211.823 161.832 211.884 161.728 211.935C161.624 211.979 161.517 212.002 161.407 212.002H159.654V198.209H161.997V206.851C161.997 207.175 161.989 207.518 161.971 207.881C161.96 208.237 161.928 208.615 161.876 209.016C161.991 208.66 162.116 208.329 162.249 208.024C162.388 207.719 162.524 207.452 162.657 207.223L167.446 199C167.499 198.905 167.559 198.81 167.629 198.714C167.704 198.619 167.785 198.536 167.872 198.466C167.958 198.39 168.051 198.33 168.149 198.285C168.253 198.234 168.363 198.209 168.479 198.209H170.232Z" fill="#5A1917"/>
<path d="M186.102 212.002H183.985C183.765 212.002 183.58 211.938 183.43 211.811C183.285 211.684 183.149 211.496 183.022 211.248L180.349 206.612C180.28 206.479 180.205 206.371 180.124 206.288C180.049 206.199 179.965 206.129 179.872 206.078C179.785 206.021 179.684 205.983 179.568 205.964C179.459 205.945 179.331 205.935 179.187 205.935H177.79V212.002H175.455V198.209H177.79V203.989H178.97C179.207 203.989 179.412 203.945 179.586 203.856C179.759 203.767 179.921 203.601 180.072 203.36L182.822 198.895C182.938 198.692 183.074 198.527 183.23 198.399C183.386 198.272 183.574 198.209 183.794 198.209H185.79L182.38 203.741C182.235 203.983 182.067 204.183 181.877 204.342C181.686 204.501 181.474 204.625 181.243 204.714C181.59 204.822 181.882 204.994 182.119 205.229C182.362 205.458 182.594 205.776 182.814 206.183L186.102 212.002Z" fill="#5A1917"/>
<path d="M196.572 206.793L195.045 202.205C194.969 202.002 194.891 201.76 194.81 201.48C194.729 201.201 194.648 200.899 194.567 200.574C194.492 200.899 194.414 201.204 194.333 201.49C194.252 201.77 194.174 202.015 194.099 202.224L192.58 206.793H196.572ZM200.693 212.002H198.889C198.686 212.002 198.521 211.947 198.394 211.839C198.267 211.725 198.171 211.585 198.108 211.42L197.171 208.606H191.973L191.036 211.42C190.99 211.566 190.9 211.699 190.767 211.82C190.634 211.941 190.466 212.002 190.264 212.002H188.45L193.379 198.209H195.765L200.693 212.002Z" fill="#5A1917"/>
<path d="M216.336 210.027V214.548C216.336 214.771 216.267 214.949 216.128 215.082C215.995 215.216 215.819 215.283 215.599 215.283H214.193V212.002H204.397V198.209H206.74V210.027H212.189V198.209H214.54V210.027H216.336Z" fill="#5A1917"/>
<path d="M231.199 198.209V212.002H228.856V203.36C228.856 203.035 228.862 202.695 228.873 202.339C228.891 201.983 228.926 201.604 228.978 201.204C228.862 201.56 228.735 201.891 228.596 202.196C228.463 202.495 228.333 202.759 228.205 202.988L223.407 211.21C223.355 211.305 223.291 211.401 223.216 211.496C223.147 211.591 223.069 211.677 222.982 211.754C222.895 211.823 222.8 211.884 222.695 211.935C222.591 211.979 222.484 212.002 222.374 212.002H220.622V198.209H222.964V206.851C222.964 207.175 222.956 207.518 222.938 207.881C222.927 208.237 222.895 208.615 222.843 209.016C222.959 208.66 223.083 208.329 223.216 208.024C223.355 207.719 223.491 207.452 223.624 207.223L228.414 199C228.466 198.905 228.526 198.81 228.596 198.714C228.671 198.619 228.752 198.536 228.839 198.466C228.926 198.39 229.018 198.33 229.116 198.285C229.221 198.234 229.33 198.209 229.446 198.209H231.199Z" fill="#5A1917"/>
<path d="M247 198.209V212.002H244.657V203.36C244.657 203.035 244.663 202.695 244.675 202.339C244.692 201.983 244.727 201.604 244.779 201.204C244.663 201.56 244.536 201.891 244.397 202.196C244.264 202.495 244.134 202.759 244.006 202.988L239.208 211.21C239.156 211.305 239.092 211.401 239.017 211.496C238.948 211.591 238.87 211.677 238.783 211.754C238.696 211.823 238.601 211.884 238.496 211.935C238.392 211.979 238.285 212.002 238.175 212.002H236.423V198.209H238.765V206.851C238.765 207.175 238.757 207.518 238.739 207.881C238.728 208.237 238.696 208.615 238.644 209.016C238.76 208.66 238.884 208.329 239.017 208.024C239.156 207.719 239.292 207.452 239.425 207.223L244.215 199C244.267 198.905 244.327 198.81 244.397 198.714C244.472 198.619 244.553 198.536 244.64 198.466C244.727 198.39 244.819 198.33 244.917 198.285C245.022 198.234 245.132 198.209 245.247 198.209H247ZM241.82 196.215C242.034 196.215 242.213 196.193 242.358 196.148C242.502 196.104 242.618 196.028 242.705 195.919C242.792 195.805 242.852 195.652 242.887 195.462C242.922 195.271 242.939 195.029 242.939 194.737H244.206C244.356 194.737 244.466 194.807 244.536 194.947C244.611 195.086 244.649 195.239 244.649 195.404C244.649 195.729 244.582 196.015 244.449 196.263C244.316 196.511 244.125 196.718 243.876 196.883C243.628 197.048 243.33 197.175 242.983 197.264C242.635 197.347 242.248 197.388 241.82 197.388C241.392 197.388 241.004 197.347 240.657 197.264C240.31 197.175 240.012 197.048 239.763 196.883C239.515 196.718 239.324 196.511 239.191 196.263C239.058 196.015 238.991 195.729 238.991 195.404C238.991 195.239 239.026 195.086 239.095 194.947C239.17 194.807 239.283 194.737 239.434 194.737H240.7C240.7 195.029 240.718 195.271 240.753 195.462C240.787 195.652 240.848 195.805 240.935 195.919C241.021 196.028 241.134 196.104 241.273 196.148C241.418 196.193 241.6 196.215 241.82 196.215Z" fill="#5A1917"/>
</svg>
